<svg width="28" height="30" viewBox="0 0 28 30" fill="none" xmlns="http://www.w3.org/2000/svg">
<path d="M14 0C17.713 0 21.274 1.58035 23.8995 4.3934C26.525 7.20644 28 11.0218 28 15C28 18.9782 26.525 22.7936 23.8995 25.6066C21.274 28.4196 17.713 30 14 30C10.287 30 6.72601 28.4196 4.10051 25.6066C1.475 22.7936 0 18.9782 0 15C0 11.0218 1.475 7.20644 4.10051 4.3934C6.72601 1.58035 10.287 0 14 0V0ZM7.875 14.0625C7.64294 14.0625 7.42038 14.1613 7.25628 14.3371C7.09219 14.5129 7 14.7514 7 15C7 15.2486 7.09219 15.4871 7.25628 15.6629C7.42038 15.8387 7.64294 15.9375 7.875 15.9375H18.0128L14.2555 19.9613C14.1741 20.0484 14.1096 20.1519 14.0656 20.2658C14.0216 20.3797 13.9989 20.5017 13.9989 20.625C13.9989 20.7483 14.0216 20.8703 14.0656 20.9842C14.1096 21.0981 14.1741 21.2016 14.2555 21.2887C14.3369 21.3759 14.4334 21.4451 14.5397 21.4922C14.646 21.5394 14.7599 21.5637 14.875 21.5637C14.9901 21.5637 15.104 21.5394 15.2103 21.4922C15.3166 21.4451 15.4131 21.3759 15.4945 21.2887L20.7445 15.6637C20.826 15.5767 20.8906 15.4732 20.9347 15.3593C20.9789 15.2454 21.0016 15.1233 21.0016 15C21.0016 14.8767 20.9789 14.7546 20.9347 14.6407C20.8906 14.5268 20.826 14.4233 20.7445 14.3363L15.4945 8.71125C15.4131 8.62408 15.3166 8.55494 15.2103 8.50777C15.104 8.4606 14.9901 8.43632 14.875 8.43632C14.7599 8.43632 14.646 8.4606 14.5397 8.50777C14.4334 8.55494 14.3369 8.62408 14.2555 8.71125C14.1741 8.79842 14.1096 8.90189 14.0656 9.01578C14.0216 9.12967 13.9989 9.25173 13.9989 9.375C13.9989 9.49827 14.0216 9.62033 14.0656 9.73422C14.1096 9.84811 14.1741 9.95158 14.2555 10.0387L18.0128 14.0625H7.875Z" fill="#FFDE2E"/>
</svg>
