<svg width="8" height="10" viewBox="0 0 8 10" fill="none" xmlns="http://www.w3.org/2000/svg">
<path d="M0.255435 9.94335C0.332525 9.98543 0.41908 10.0047 0.505809 9.99904C0.592538 9.9934 0.676167 9.96309 0.747718 9.91135L6.94296 5.41112C7.00627 5.3651 7.058 5.30367 7.09373 5.23208C7.12946 5.1605 7.14812 5.0809 7.14812 5.00009C7.14812 4.91929 7.12946 4.83969 7.09373 4.7681C7.058 4.69652 7.00627 4.63509 6.94296 4.58907L0.747718 0.0888361C0.676222 0.0369296 0.592555 0.00653422 0.505777 0.000940932C0.418998 -0.00465236 0.332414 0.0147697 0.255401 0.057104C0.178388 0.0994383 0.11388 0.163072 0.068861 0.241114C0.0238425 0.319156 2.9348e-05 0.408634 6.47313e-09 0.499858V9.50033C-1.43288e-05 9.59161 0.0237817 9.68114 0.0688088 9.75924C0.113836 9.83733 0.178376 9.901 0.255435 9.94335Z" fill="black"/>
</svg>
