<svg width="24" height="20" viewBox="0 0 24 20" fill="none" xmlns="http://www.w3.org/2000/svg">
<path d="M22.3622 0H0.931759C0.41638 0 0 0.3575 0 0.8V19.2C0 19.6425 0.41638 20 0.931759 20H22.3622C22.8776 20 23.294 19.6425 23.294 19.2V0.8C23.294 0.3575 22.8776 0 22.3622 0ZM19.6718 5.8375H17.8111C16.3524 5.8375 16.0699 6.4325 16.0699 7.3075V9.235H19.5524L19.0981 12.2525H16.0699V20H12.439V12.255H9.40203V9.235H12.439V7.01C12.439 4.4275 14.2763 3.02 16.9609 3.02C18.2479 3.02 19.3515 3.1025 19.6747 3.14V5.8375H19.6718Z" fill="black"/>
</svg>
