<svg width="23" height="20" viewBox="0 0 23 20" fill="none" xmlns="http://www.w3.org/2000/svg">
<path fill-rule="evenodd" clip-rule="evenodd" d="M2.84426e-07 1.67091C2.84426e-07 1.22776 0.202448 0.802756 0.562808 0.4894C0.923168 0.176044 1.41192 2.22756e-06 1.92155 2.22756e-06H21.0764C21.3289 -0.000356456 21.5791 0.0426049 21.8125 0.126426C22.0459 0.210248 22.2581 0.333284 22.4368 0.48849C22.6154 0.643696 22.7572 0.828023 22.8538 1.03092C22.9505 1.23382 23.0001 1.4513 23 1.67091V18.3273C23.0003 18.5469 22.9507 18.7645 22.8542 18.9675C22.7577 19.1705 22.6161 19.3549 22.4376 19.5103C22.259 19.6656 22.0469 19.7889 21.8136 19.8729C21.5802 19.9569 21.33 20.0001 21.0774 20H1.92155C1.66912 20 1.41916 19.9568 1.18596 19.8727C0.95276 19.7887 0.740884 19.6655 0.562438 19.5103C0.383992 19.355 0.242474 19.1707 0.145969 18.9679C0.0494639 18.7651 -0.000137054 18.5477 2.84426e-07 18.3282V1.67091ZM9.10382 7.62546H12.2182V8.98546C12.6678 8.20364 13.8178 7.5 15.5459 7.5C18.859 7.5 19.6441 9.05727 19.6441 11.9145V17.2073H16.2913V12.5655C16.2913 10.9382 15.8418 10.02 14.7001 10.02C13.1163 10.02 12.4576 11.01 12.4576 12.5655V17.2073H9.10382V7.62546ZM3.35382 17.0827H6.70764V7.5H3.35382V17.0827ZM7.1875 4.37455C7.19382 4.62425 7.14273 4.87254 7.0372 5.10483C6.93168 5.33713 6.77387 5.54876 6.57301 5.7273C6.37216 5.90585 6.13232 6.0477 5.86757 6.14455C5.60281 6.2414 5.31848 6.29129 5.03125 6.29129C4.74402 6.29129 4.45969 6.2414 4.19493 6.14455C3.93018 6.0477 3.69034 5.90585 3.48949 5.7273C3.28863 5.54876 3.13082 5.33713 3.0253 5.10483C2.91977 4.87254 2.86868 4.62425 2.875 4.37455C2.88741 3.88441 3.12004 3.41799 3.52306 3.07517C3.92609 2.73235 4.46746 2.54038 5.03125 2.54038C5.59504 2.54038 6.13642 2.73235 6.53944 3.07517C6.94246 3.41799 7.17509 3.88441 7.1875 4.37455Z" fill="black"/>
</svg>
